<?xml version="1.0" standalone="no"?>
<!DOCTYPE svg PUBLIC "-//W3C//DTD SVG 20010904//EN"
 "http://www.w3.org/TR/2001/REC-SVG-20010904/DTD/svg10.dtd">
<svg version="1.0" xmlns="http://www.w3.org/2000/svg"
 width="1173.000000pt" height="1280.000000pt" viewBox="0 0 1173.000000 1280.000000"
 preserveAspectRatio="xMidYMid meet">
<g transform="translate(0.000000,1280.000000) scale(0.100000,-0.100000)"
fill="#000000" stroke="none">
<path d="M8151 12779 c-117 -26 -173 -45 -265 -90 -221 -110 -375 -287 -422
-486 -21 -87 -14 -223 15 -315 22 -69 99 -180 481 -698 706 -955 1098 -1622
1395 -2369 534 -1344 652 -2698 340 -3906 -106 -408 -295 -885 -480 -1210
-768 -1351 -2154 -2101 -3507 -1900 -993 149 -1992 772 -2747 1715 -634 793
-1061 1887 -1195 3070 -65 563 -68 1229 -10 1830 44 460 161 1163 212 1281 29
66 79 227 102 324 84 361 71 691 -38 914 -53 108 -161 217 -264 266 -108 51
-166 65 -303 72 -93 4 -134 2 -185 -11 -175 -44 -339 -171 -467 -361 -53 -78
-73 -119 -134 -273 -290 -723 -493 -1510 -594 -2292 -63 -497 -98 -1146 -77
-1439 7 -86 17 -228 22 -316 41 -619 151 -1243 325 -1835 23 -80 55 -197 70
-260 36 -151 130 -435 195 -585 110 -257 285 -565 457 -802 261 -363 412 -565
534 -718 894 -1116 2017 -1893 3174 -2195 358 -94 447 -107 1240 -181 229 -21
646 10 1020 77 870 155 1743 563 2445 1143 147 122 538 512 662 661 623 752
1061 1638 1327 2688 100 394 179 844 221 1268 10 110 22 209 26 218 4 10 2 79
-5 154 -6 75 -15 211 -21 302 -83 1308 -472 2626 -1110 3765 -425 758 -812
1259 -1591 2060 -69 72 -152 161 -183 199 -111 133 -200 189 -371 231 -117 29
-178 30 -294 4z m2411 -4430 c15 -31 29 -71 30 -89 3 -31 1 -33 -72 -61 -41
-16 -78 -29 -82 -29 -9 0 -45 69 -64 123 -12 33 -12 43 -2 53 18 17 130 63
148 61 8 -1 27 -27 42 -58z m356 -1751 c17 -17 16 -177 0 -183 -30 -9 -154
-14 -166 -7 -14 10 -28 128 -18 165 5 22 12 26 54 30 98 7 118 7 130 -5z
m-9878 -414 c19 -22 26 -169 9 -179 -24 -16 -166 -19 -174 -4 -5 7 -11 47 -13
90 -5 90 -4 92 88 100 36 3 68 7 71 7 4 1 12 -5 19 -14z m9560 -1393 c19 -5
47 -12 63 -15 24 -6 27 -11 27 -44 0 -51 -28 -142 -45 -148 -23 -9 -163 26
-169 42 -6 15 6 82 25 142 12 35 32 40 99 23z m-9099 -383 c31 -60 48 -113 41
-125 -11 -16 -153 -74 -164 -67 -17 11 -69 135 -66 157 2 14 22 28 68 48 36
16 73 28 82 29 11 0 26 -17 39 -42z m8567 -1257 c6 -15 -53 -134 -77 -154 -10
-9 -30 -2 -87 28 -86 46 -89 56 -43 131 57 91 52 89 131 47 39 -20 73 -43 76
-52z m-7596 -223 c30 -23 98 -112 98 -129 0 -17 -112 -109 -133 -109 -22 0
-117 110 -117 135 0 12 117 114 131 115 3 0 12 -6 21 -12z m1306 -1188 c24
-17 46 -38 49 -46 7 -19 -77 -143 -97 -144 -20 0 -150 87 -150 101 0 12 53 93
83 126 18 20 22 21 46 8 14 -7 45 -27 69 -45z"/>
</g>
</svg>
